<?xml version="1.0" encoding="UTF-8" standalone="no"?>
<!-- Creator: CorelDRAW -->

<svg
   xml:space="preserve"
   width="9.4820929in"
   height="2.5343606in"
   version="1.1"
   style="clip-rule:evenodd;fill-rule:evenodd;image-rendering:optimizeQuality;shape-rendering:geometricPrecision;text-rendering:geometricPrecision"
   viewBox="0 0 9482.093 2534.3606"
   id="svg238"
   sodipodi:docname="microtech_logo_hori.svg"
   inkscape:version="1.2.1 (9c6d41e, 2022-07-14)"
   xmlns:inkscape="http://www.inkscape.org/namespaces/inkscape"
   xmlns:sodipodi="http://sodipodi.sourceforge.net/DTD/sodipodi-0.dtd"
   xmlns:xlink="http://www.w3.org/1999/xlink"
   xmlns="http://www.w3.org/2000/svg"
   xmlns:svg="http://www.w3.org/2000/svg"><sodipodi:namedview
   id="namedview240"
   pagecolor="#ffffff"
   bordercolor="#999999"
   borderopacity="1"
   inkscape:showpageshadow="0"
   inkscape:pageopacity="0"
   inkscape:pagecheckerboard="0"
   inkscape:deskcolor="#d1d1d1"
   inkscape:document-units="in"
   showgrid="false"
   inkscape:lockguides="true"
   inkscape:zoom="0.53033009"
   inkscape:cx="390.32294"
   inkscape:cy="635.45329"
   inkscape:window-width="1390"
   inkscape:window-height="916"
   inkscape:window-x="1920"
   inkscape:window-y="136"
   inkscape:window-maximized="0"
   inkscape:current-layer="Layer_x0020_1" />
 <defs
   id="defs202">
  <style
   type="text/css"
   id="style182">
   <![CDATA[
    .fil3 {fill:url(#id0)}
    .fil2 {fill:url(#id1)}
    .fil1 {fill:url(#id2)}
    .fil4 {fill:url(#id3)}
    .fil0 {fill:url(#id4)}
    .fil5 {fill:url(#id5)}
    .fil7 {fill:url(#id6);fill-rule:nonzero}
    .fil6 {fill:url(#id7);fill-rule:nonzero}
   ]]>
  </style>
  <linearGradient
   id="id0"
   gradientUnits="objectBoundingBox"
   x1="0.46576101"
   y1="0"
   x2="0.53423697"
   y2="1.0844799">
   <stop
   offset="0"
   style="stop-opacity:1; stop-color:#4F3073"
   id="stop184" />
   <stop
   offset="1"
   style="stop-opacity:1; stop-color:#38C6D2"
   id="stop186" />
  </linearGradient>
  <linearGradient
   id="id1"
   gradientUnits="userSpaceOnUse"
   xlink:href="#id0"
   x1="9823.9072"
   y1="1869.0262"
   x2="8510.21"
   y2="2015.0771"
   gradientTransform="scale(0.50159801,1.9936283)">
  </linearGradient>
  <linearGradient
   id="id2"
   gradientUnits="objectBoundingBox"
   x1="0"
   y1="0.57682997"
   x2="1.2064199"
   y2="0.423168">
   <stop
   offset="0"
   style="stop-opacity:1; stop-color:#9D0018"
   id="stop190" />
   <stop
   offset="0.231373"
   style="stop-opacity:1; stop-color:#BF2432"
   id="stop192" />
   <stop
   offset="1"
   style="stop-opacity:1; stop-color:#E2494C"
   id="stop194" />
  </linearGradient>
  <linearGradient
   id="id3"
   gradientUnits="userSpaceOnUse"
   xlink:href="#id0"
   x1="7061.4912"
   y1="1869.0272"
   x2="8375.1885"
   y2="2015.0781"
   gradientTransform="scale(0.50159801,1.9936283)">
  </linearGradient>
  <linearGradient
   id="id4"
   gradientUnits="userSpaceOnUse"
   xlink:href="#id2"
   x1="6832.2256"
   y1="2227.2246"
   x2="5931.8213"
   y2="2112.5398"
   gradientTransform="scale(0.5424,1.8436578)">
  </linearGradient>
  <linearGradient
   id="id5"
   gradientUnits="userSpaceOnUse"
   xlink:href="#id0"
   x1="2400.9209"
   y1="4865.5791"
   x2="2468.7339"
   y2="5647.7432"
   gradientTransform="scale(1.7100168,0.58478959)">
  </linearGradient>
  <linearGradient
   id="id6"
   gradientUnits="userSpaceOnUse"
   xlink:href="#id0"
   x1="1223.4451"
   y1="17361.68"
   x2="1234.9636"
   y2="19363.137"
   gradientTransform="scale(3.3887027,0.29509818)">
  </linearGradient>
  <linearGradient
   id="id7"
   gradientUnits="userSpaceOnUse"
   xlink:href="#id2"
   x1="1159.7107"
   y1="22414.969"
   x2="1153.2137"
   y2="21188.535"
   gradientTransform="scale(3.6018323,0.27763647)">
  </linearGradient>
 <linearGradient
   inkscape:collect="always"
   xlink:href="#id2"
   id="linearGradient795"
   gradientUnits="userSpaceOnUse"
   x1="6832.2256"
   y1="2227.2246"
   x2="5931.8213"
   y2="2112.5398"
   gradientTransform="scale(0.5424,1.8436578)" /><linearGradient
   inkscape:collect="always"
   xlink:href="#id2"
   id="linearGradient797"
   gradientUnits="userSpaceOnUse"
   x1="8681.0225"
   y1="2225.7371"
   x2="9581.4199"
   y2="2111.0532"
   gradientTransform="scale(0.54239572,1.8436723)" /><linearGradient
   inkscape:collect="always"
   xlink:href="#id0"
   id="linearGradient799"
   gradientUnits="userSpaceOnUse"
   x1="9823.9072"
   y1="1869.0262"
   x2="8510.21"
   y2="2015.0771"
   gradientTransform="scale(0.50159801,1.9936283)" /><linearGradient
   inkscape:collect="always"
   xlink:href="#id0"
   id="linearGradient801"
   gradientUnits="userSpaceOnUse"
   x1="2212.1506"
   y1="6137.2544"
   x2="2282.0669"
   y2="7244.5425"
   gradientTransform="scale(1.8542619,0.53929816)" /><linearGradient
   inkscape:collect="always"
   xlink:href="#id0"
   id="linearGradient803"
   gradientUnits="userSpaceOnUse"
   x1="7061.4912"
   y1="1869.0272"
   x2="8375.1885"
   y2="2015.0781"
   gradientTransform="scale(0.50159801,1.9936283)" /><linearGradient
   inkscape:collect="always"
   xlink:href="#id0"
   id="linearGradient805"
   gradientUnits="userSpaceOnUse"
   x1="2400.9209"
   y1="4865.5791"
   x2="2468.7339"
   y2="5647.7432"
   gradientTransform="scale(1.7100168,0.58478959)" /><linearGradient
   inkscape:collect="always"
   xlink:href="#id2"
   id="linearGradient807"
   gradientUnits="userSpaceOnUse"
   x1="1159.7107"
   y1="22414.969"
   x2="1153.2137"
   y2="21188.535"
   gradientTransform="scale(3.6018323,0.27763647)" /><linearGradient
   inkscape:collect="always"
   xlink:href="#id0"
   id="linearGradient809"
   gradientUnits="userSpaceOnUse"
   x1="1223.4451"
   y1="17361.68"
   x2="1234.9636"
   y2="19363.137"
   gradientTransform="scale(3.3887027,0.29509818)" /><linearGradient
   inkscape:collect="always"
   xlink:href="#id2"
   id="linearGradient811"
   gradientUnits="userSpaceOnUse"
   x1="8681.0225"
   y1="2225.7371"
   x2="9581.4199"
   y2="2111.0532"
   gradientTransform="scale(0.54239572,1.8436723)" /><linearGradient
   inkscape:collect="always"
   xlink:href="#id0"
   id="linearGradient813"
   gradientUnits="userSpaceOnUse"
   x1="2212.1506"
   y1="6137.2544"
   x2="2282.0669"
   y2="7244.5425"
   gradientTransform="scale(1.8542619,0.53929816)" /></defs>
 <g
   id="Layer_x0020_1"
   inkscape:label="Layer 1"
   inkscape:groupmode="layer">
  <metadata
   id="CorelCorpID_0Corel-Layer" />
  
  
  
  
  
  
  
  
  
  
  
  
  
  
  
  <g
   id="g831"
   transform="translate(-2722.6449,-2604.5498)"><g
     id="g897"><path
       class="fil0"
       d="m 3344.92,3312.53 c 0,0 546.22,576.37 105.48,1356.67 0,0 -62.3,47.1 -139.02,-5.77 -76.72,-52.87 -57.38,-117.34 -27.08,-175.37 30.3,-58.03 252.35,-463.31 -66.88,-967.52 l 127.49,-208.02 z"
       id="path205"
       style="fill:url(#linearGradient795)" /><path
       class="fil1"
       d="m 4985.87,3309.82 c 0,0 -546.22,576.37 -105.49,1356.67 0,0 62.3,47.1 139.02,-5.77 76.72,-52.87 57.38,-117.34 27.08,-175.37 -30.3,-58.03 -252.35,-463.31 66.88,-967.52 l -127.49,-208.02 z"
       id="path207"
       style="fill:url(#linearGradient797)" /><path
       class="fil2"
       d="m 4785.19,3063.44 -112.33,-218.11 c 0,0 -415.69,422.37 -403.91,1156.9 0,0 14.86,482.87 271.82,863.14 0,0 74.37,63.7 143.6,13.45 69.24,-50.26 82.08,-117.81 32.39,-188.73 -49.7,-70.91 -498.63,-702.64 68.43,-1626.66 z"
       id="path209"
       style="fill:url(#linearGradient799)" /><path
       class="fil3"
       d="m 3220.1,3513.85 125.42,-203.98 c 0,0 790.05,696.82 1636.66,-0.06 l 131.18,207.24 c 0,0 -872.38,774.78 -1893.26,-3.2 z"
       id="path211"
       style="fill:url(#linearGradient801)" /><path
       class="fil4"
       d="m 3542.03,3063.44 112.33,-218.11 c 0,0 415.69,422.37 403.91,1156.9 0,0 -14.86,482.87 -271.82,863.14 0,0 -74.37,63.7 -143.6,13.45 -69.24,-50.25 -82.08,-117.81 -32.39,-188.73 49.7,-70.91 498.63,-702.64 -68.43,-1626.65 z"
       id="path213"
       style="fill:url(#linearGradient803)" /><path
       class="fil5"
       d="m 3542.02,3054.86 107.73,-209.52 c 0,0 459.77,396.15 1024.72,0.85 l 110.71,216.64 c 0,0 -594.23,472.47 -1243.17,-7.96 z"
       id="path215"
       style="fill:url(#linearGradient805)" /><path
       class="fil0"
       d="m 3344.92,3312.53 c 0,0 546.22,576.37 105.48,1356.67 0,0 -62.3,47.1 -139.02,-5.77 -76.72,-52.87 -57.38,-117.34 -27.08,-175.37 30.3,-58.03 252.35,-463.31 -66.88,-967.52 l 127.49,-208.02 z"
       id="path221"
       style="fill:url(#id4)" /><path
       class="fil1"
       d="m 4985.87,3309.82 c 0,0 -546.22,576.37 -105.49,1356.67 0,0 62.3,47.1 139.02,-5.77 76.72,-52.87 57.38,-117.34 27.08,-175.37 -30.3,-58.03 -252.35,-463.31 66.88,-967.52 l -127.49,-208.02 z"
       id="path223"
       style="fill:url(#linearGradient811)" /><path
       class="fil2"
       d="m 4785.19,3063.44 -112.33,-218.11 c 0,0 -415.69,422.37 -403.91,1156.9 0,0 14.86,482.87 271.82,863.14 0,0 74.37,63.7 143.6,13.45 69.24,-50.26 82.08,-117.81 32.39,-188.73 -49.7,-70.91 -498.63,-702.64 68.43,-1626.66 z"
       id="path225"
       style="fill:url(#id1)" /><path
       class="fil3"
       d="m 3220.1,3513.85 125.42,-203.98 c 0,0 790.05,696.82 1636.66,-0.06 l 131.18,207.24 c 0,0 -872.38,774.78 -1893.26,-3.2 z"
       id="path227"
       style="fill:url(#linearGradient813)" /><path
       class="fil4"
       d="m 3542.03,3063.44 112.33,-218.11 c 0,0 415.69,422.37 403.91,1156.9 0,0 -14.86,482.87 -271.82,863.14 0,0 -74.37,63.7 -143.6,13.45 -69.24,-50.25 -82.08,-117.81 -32.39,-188.73 49.7,-70.91 498.63,-702.64 -68.43,-1626.65 z"
       id="path229"
       style="fill:url(#id3)" /><path
       class="fil5"
       d="m 3542.02,3054.86 107.73,-209.52 c 0,0 459.77,396.15 1024.72,0.85 l 110.71,216.64 c 0,0 -594.23,472.47 -1243.17,-7.96 z"
       id="path231"
       style="fill:url(#id5)" /></g><g
     id="g883"
     transform="translate(4478.343,-1781.1149)"><path
       class="fil6"
       d="m 2222.14,5967.57 h 82.04 v 206.76 c -3.44,0.94 -8.75,1.87 -15.94,2.81 -7.19,0.94 -14.54,1.41 -22.04,1.41 -16.26,0 -27.66,-2.89 -34.23,-8.67 -6.56,-5.78 -9.84,-15.86 -9.84,-30.24 v -172.07 z m 82.04,108.3 h -82.04 v -186.13 c 3.75,-0.62 9.3,-1.48 16.64,-2.58 7.35,-1.09 14.46,-1.64 21.33,-1.64 15.63,0 26.88,2.65 33.76,7.97 6.87,5.31 10.31,15.63 10.31,30.94 v 151.43 z m 488.43,-55.32 h 23.44 c 13.13,0 23.91,-3.05 32.35,-9.14 8.44,-6.09 12.66,-15.08 12.66,-26.96 0,-11.87 -3.83,-20.86 -11.49,-26.96 -7.66,-6.09 -19.77,-9.14 -36.33,-9.14 -4.06,0 -7.66,0.16 -10.78,0.47 -3.13,0.31 -6.41,0.78 -9.85,1.41 v 70.33 z m 31.88,62.35 H 2711.5 v -165.5 c 0,-6.56 1.87,-11.64 5.63,-15.24 3.75,-3.59 8.59,-6.48 14.53,-8.67 10.63,-3.75 22.97,-6.48 37.04,-8.2 14.06,-1.72 29.07,-2.58 45.01,-2.58 43.13,0 75.64,9.14 97.52,27.43 21.88,18.28 32.82,42.74 32.82,73.37 0,19.07 -5.39,36.1 -16.18,51.11 -10.78,15 -25.16,26.8 -43.13,35.4 -17.97,8.59 -38.05,12.89 -60.24,12.89 z m -17.35,-18.28 74.54,-15 c 6.88,9.38 13.91,18.6 21.1,27.66 7.19,9.07 13.99,17.82 20.39,26.26 6.41,8.44 12.27,16.25 17.58,23.44 5.31,7.19 9.53,13.44 12.66,18.76 -3.13,10.63 -8.83,18.91 -17.11,24.85 -8.28,5.94 -17.58,8.91 -27.9,8.91 -13.44,0 -23.68,-2.97 -30.71,-8.91 -7.03,-5.94 -13.52,-13.75 -19.46,-23.44 l -51.1,-82.52 z m -95.64,-13.59 h 82.04 v 123.3 c -3.44,0.94 -8.75,1.87 -15.94,2.81 -7.19,0.94 -14.54,1.41 -22.04,1.41 -16.26,0 -27.66,-2.89 -34.23,-8.67 -6.56,-5.78 -9.84,-15.86 -9.84,-30.24 v -88.61 z m 631.89,-83.46 h 79.7 v 204.41 c -3.44,0.94 -8.44,1.88 -15,2.81 -6.56,0.94 -13.59,1.41 -21.1,1.41 -13.44,0 -24.07,-3.91 -31.88,-11.72 -7.81,-7.81 -11.72,-18.44 -11.72,-31.88 z m 79.7,131.74 h -79.7 v -165.03 c 0,-13.44 3.91,-24.07 11.72,-31.88 7.81,-7.81 18.44,-11.72 31.88,-11.72 7.5,0 14.54,0.47 21.1,1.41 6.56,0.94 11.57,1.87 15,2.81 z m -36.1,-37.04 v -63.76 h 141.59 c 2.19,3.44 4.14,7.81 5.86,13.13 1.72,5.31 2.58,11.25 2.58,17.82 0,11.56 -2.5,19.93 -7.5,25.08 -5,5.16 -11.88,7.74 -20.63,7.74 h -121.9 z m 0,113.93 v -64.7 h 156.59 c 2.19,3.44 4.14,7.97 5.86,13.59 1.72,5.63 2.58,11.72 2.58,18.28 0,11.57 -2.5,19.93 -7.5,25.08 -5,5.16 -11.88,7.74 -20.63,7.74 h -136.9 z m 0,-221.29 v -64.23 h 154.72 c 2.19,3.44 4.14,7.81 5.86,13.13 1.72,5.31 2.58,11.25 2.58,17.81 0,11.57 -2.5,20 -7.5,25.32 -5,5.31 -11.88,7.97 -20.63,7.97 z m 559.69,12.66 h 82.04 v 204.41 l -38.44,4.22 c -13.44,0 -24.07,-3.91 -31.88,-11.72 -7.81,-7.81 -11.72,-18.44 -11.72,-31.88 z m 43.6,208.63 v -66.11 h 145.81 c 2.19,3.44 4.22,7.97 6.09,13.6 1.87,5.63 2.81,11.72 2.81,18.28 0,11.56 -2.5,20.16 -7.5,25.79 -5,5.63 -11.88,8.44 -20.63,8.44 h -126.59 z m 38.44,-100.33 h -82.04 v -186.13 c 3.75,-0.62 9.3,-1.48 16.64,-2.58 7.35,-1.09 14.46,-1.64 21.33,-1.64 15.63,0 26.88,2.65 33.76,7.97 6.87,5.31 10.31,15.63 10.31,30.94 v 151.43 z m 629.07,-116.27 h -2.81 c -2.81,8.75 -5.94,18.28 -9.38,28.6 -3.44,10.31 -7.03,21.18 -10.78,32.59 -3.75,11.41 -7.35,23.2 -10.78,35.39 l -10.31,52.98 c -1.87,6.25 -3.52,12.35 -4.92,18.28 -1.41,5.94 -2.81,11.57 -4.22,16.88 -1.41,5.31 -2.74,10.47 -3.98,15.47 -1.25,5 -2.5,9.85 -3.75,14.54 -4.06,1.25 -8.59,2.5 -13.59,3.75 -5,1.25 -10.94,1.87 -17.82,1.87 -15.63,0 -27.35,-2.74 -35.16,-8.2 -7.81,-5.47 -11.72,-13.05 -11.72,-22.74 0,-4.37 0.63,-8.75 1.87,-13.13 1.25,-4.38 2.66,-9.53 4.22,-15.47 2.5,-10 6.25,-22.89 11.25,-38.68 5,-15.79 10.55,-32.82 16.65,-51.11 6.09,-18.28 12.19,-36.18 18.28,-53.68 6.09,-17.5 11.64,-33.21 16.64,-47.12 5,-13.91 8.75,-24.15 11.25,-30.71 5.31,-3.13 13.44,-6.09 24.38,-8.91 10.94,-2.81 21.72,-4.22 32.35,-4.22 15.63,0 29.54,2.26 41.72,6.8 12.19,4.54 19.85,11.8 22.98,21.8 5.63,15.94 11.64,34.61 18.05,56.02 6.41,21.41 12.97,43.76 19.69,67.05 6.72,23.28 13.2,45.94 19.46,67.98 6.25,22.04 11.72,41.8 16.41,59.31 -3.75,4.06 -9.38,7.5 -16.88,10.31 -7.5,2.81 -16.41,4.22 -26.72,4.22 -15.31,0 -25.94,-2.58 -31.88,-7.74 -5.94,-5.16 -10.31,-13.05 -13.13,-23.68 l -11.72,-45.01 -9.38,-48.29 c -3.13,-12.19 -6.25,-23.91 -9.38,-35.16 -3.13,-11.25 -6.09,-21.96 -8.91,-32.11 -2.81,-10.16 -5.47,-19.46 -7.97,-27.9 z m -79.23,156.12 32.35,-63.29 h 103.14 l 9.85,63.29 z m 600.01,-128.46 h 75.48 c 1.25,14.38 2.11,28.13 2.58,41.26 0.47,13.13 0.7,25.56 0.7,37.28 0,11.72 0,23.2 0,34.46 v 74.55 c -3.13,0.63 -8.2,1.41 -15.24,2.34 -7.04,0.94 -14.15,1.41 -21.33,1.41 -15.63,0 -26.57,-2.74 -32.82,-8.2 -6.25,-5.47 -9.37,-15.24 -9.37,-29.3 v -153.78 z m 257.39,89.08 h -75.48 c -1.88,-21.88 -2.89,-42.04 -3.05,-60.48 -0.15,-18.44 -0.23,-35.94 -0.23,-52.51 v -74.08 c 3.44,-0.63 8.59,-1.41 15.47,-2.34 6.87,-0.94 13.91,-1.41 21.1,-1.41 15.63,0 26.57,2.73 32.81,8.2 6.25,5.47 9.38,15.24 9.38,29.3 v 153.31 z m 0,-25.31 v -59.07 173 c -4.37,4.06 -10.7,7.35 -18.99,9.85 -8.28,2.5 -18.2,3.75 -29.77,3.75 -11.56,0 -22.5,-1.72 -32.82,-5.16 -10.31,-3.44 -18.75,-11.72 -25.31,-24.85 l -46.42,-94.7 c -3.13,-6.56 -6.02,-12.74 -8.67,-18.52 -2.65,-5.78 -5.23,-11.8 -7.74,-18.05 -2.5,-6.25 -5.31,-13.13 -8.44,-20.63 l -79.23,17.35 v -108.77 c 4.37,-6.25 11.09,-10.94 20.16,-14.06 9.06,-3.13 18.76,-4.69 29.07,-4.69 11.57,0 22.58,1.8 33.06,5.39 10.47,3.59 18.83,11.8 25.08,24.61 l 46.88,94.7 c 3.13,6.25 6.02,12.35 8.68,18.29 2.65,5.94 5.31,12.03 7.97,18.28 2.66,6.25 5.39,13.13 8.2,20.63 l 78.3,-17.35 z m 588.29,-17.35 c 0,27.51 -6.8,48.13 -20.39,61.89 -13.59,13.75 -31.02,20.63 -52.28,20.63 -4.06,0 -8.67,-0.23 -13.83,-0.7 -5.16,-0.47 -9.45,-1.02 -12.89,-1.64 V 5950.7 c 4.69,-0.62 9.3,-1.09 13.83,-1.41 4.53,-0.31 8.99,-0.47 13.36,-0.47 14.69,0 27.43,3.2 38.21,9.61 10.78,6.41 19.14,15.86 25.08,28.37 5.94,12.5 8.91,28.13 8.91,46.88 z m 84.39,-1.41 c 0,-34.07 -6.8,-62.12 -20.4,-84.16 -13.59,-22.04 -32.5,-38.44 -56.73,-49.23 -24.22,-10.78 -52.59,-16.17 -85.09,-16.17 -11.88,0 -25.31,0.7 -40.32,2.11 -15,1.41 -29.22,4.3 -42.67,8.67 -5.94,2.19 -10.78,5.08 -14.53,8.67 -3.75,3.59 -5.63,8.67 -5.63,15.24 v 218.95 c 0,16.25 8.59,27.66 25.78,34.22 12.5,4.69 26.65,7.81 42.43,9.38 15.79,1.56 28.99,2.34 39.62,2.34 31.57,0 59.15,-5.55 82.75,-16.64 23.6,-11.1 41.96,-27.74 55.09,-49.93 13.13,-22.19 19.69,-50.01 19.69,-83.45 z"
       id="path217"
       style="fill:url(#linearGradient807)" /><path
       class="fil7"
       d="m 1355.53,5456.88 c -5.15,3.95 -11.77,7.31 -19.88,10.09 -8.11,2.77 -17.5,4.15 -28.19,4.15 -14.24,0 -26.01,-1.78 -35.31,-5.34 -9.3,-3.56 -15.33,-9.69 -18.1,-18.39 -11.07,-35.2 -20.17,-63.49 -27.29,-84.85 -7.12,-21.36 -12.66,-40.15 -16.61,-56.37 h -2.97 c -1.19,23.34 -2.07,44.6 -2.67,63.79 -0.59,19.19 -0.99,37.78 -1.19,55.78 -0.2,18 -0.59,36.39 -1.19,55.19 -0.59,18.79 -1.48,39.46 -2.67,62 -5.14,1.58 -11.87,3.17 -20.17,4.75 -8.31,1.58 -16.61,2.37 -24.92,2.37 -17.01,0 -30.46,-2.77 -40.35,-8.31 -9.89,-5.54 -14.83,-15.63 -14.83,-30.26 0,-9.89 0.4,-23.44 1.19,-40.65 0.79,-17.2 1.88,-36.59 3.26,-58.15 1.39,-21.56 2.77,-44.2 4.15,-67.94 1.39,-23.74 2.87,-47.27 4.45,-70.61 1.58,-23.34 2.96,-45.1 4.15,-65.27 3.17,-5.14 10.09,-10.68 20.77,-16.61 10.68,-5.93 25.71,-8.9 45.09,-8.9 20.96,0 37.48,3.26 49.55,9.79 12.06,6.53 20.67,17.11 25.81,31.74 4.74,12.66 9.89,27.59 15.43,44.8 5.54,17.21 11.08,34.61 16.61,52.22 5.54,17.6 10.48,33.33 14.83,47.17 h 2.97 c 9.49,-32.83 19.09,-64.97 28.78,-96.42 9.69,-31.45 18.3,-57.46 25.81,-78.03 5.94,-3.17 13.65,-5.83 23.14,-8.01 9.5,-2.17 19.78,-3.26 30.85,-3.26 19.39,0 35.21,2.87 47.47,8.61 12.26,5.74 19.38,13.94 21.36,24.62 1.58,7.91 3.26,19.98 5.04,36.2 1.78,16.22 3.66,34.81 5.64,55.78 1.98,20.96 3.96,42.82 5.93,65.57 1.98,22.74 3.86,44.8 5.64,66.16 1.78,21.36 3.26,40.65 4.45,57.85 1.19,17.21 1.98,30.76 2.37,40.65 -6.72,3.96 -13.74,6.82 -21.06,8.6 -7.32,1.78 -16.71,2.67 -28.19,2.67 -14.64,0 -27.2,-2.57 -37.68,-7.72 -10.48,-5.14 -16.12,-15.23 -16.91,-30.26 -1.58,-28.88 -2.77,-55.78 -3.56,-80.7 -0.79,-24.92 -1.39,-47.67 -1.78,-68.24 -0.4,-20.57 -0.99,-38.57 -1.78,-54 H 1400 c -3.96,15.43 -9.69,34.81 -17.21,58.15 -7.52,23.34 -16.61,53.2 -27.29,89.6 z m 214.2,-280.07 c 0,-15.03 5.14,-27.69 15.43,-37.98 10.28,-10.28 23.54,-15.43 39.76,-15.43 16.22,0 29.47,5.15 39.76,15.43 10.28,10.28 15.43,22.94 15.43,37.98 0,14.63 -5.14,27.19 -15.43,37.68 -10.29,10.48 -23.54,15.72 -39.76,15.72 -16.22,0 -29.47,-5.24 -39.76,-15.72 -10.29,-10.48 -15.43,-23.04 -15.43,-37.68 z m 4.75,211.83 h 100.87 v 156.05 c -4.35,1.19 -10.58,2.37 -18.69,3.56 -8.11,1.19 -16.91,1.78 -26.41,1.78 -19.38,0 -33.52,-3.36 -42.43,-10.09 -8.9,-6.73 -13.35,-19.19 -13.35,-37.38 v -113.93 z m 100.87,52.81 h -100.87 v -180.38 c 4.35,-1.19 10.58,-2.37 18.69,-3.56 8.11,-1.19 16.91,-1.78 26.41,-1.78 19.78,0 34.02,3.26 42.72,9.79 8.7,6.53 13.05,19.09 13.05,37.68 z m 226.67,-113.93 c -19.78,0 -36.89,6.33 -51.33,18.99 -14.44,12.66 -21.66,31.25 -21.66,55.78 0,24.52 6.92,42.72 20.77,54.59 13.85,11.87 31.05,17.8 51.62,17.8 11.87,0 22.45,-1.48 31.74,-4.45 9.3,-2.97 17.11,-6.04 23.44,-9.2 7.52,5.54 13.15,11.47 16.91,17.8 3.76,6.33 5.64,14.04 5.64,23.14 0,15.82 -7.81,28.48 -23.44,37.98 -15.62,9.49 -37.87,14.24 -66.75,14.24 -32.83,0 -61.41,-5.74 -85.74,-17.21 -24.33,-11.47 -43.12,-28.58 -56.37,-51.33 -13.25,-22.74 -19.88,-50.54 -19.88,-83.37 0,-34.81 7.32,-63.59 21.96,-86.33 14.63,-22.74 34.02,-39.76 58.15,-51.03 24.13,-11.28 50.43,-16.91 78.91,-16.91 28.09,0 49.94,5.14 65.57,15.43 15.63,10.28 23.44,23.54 23.44,39.76 0,7.52 -1.78,14.54 -5.34,21.06 -3.56,6.53 -7.71,12.17 -12.46,16.91 -6.72,-3.16 -14.83,-6.23 -24.33,-9.2 -9.5,-2.96 -19.78,-4.45 -30.85,-4.45 z m 228.44,14.24 v 67.64 h -100.87 v -83.07 c 0,-11.47 3.07,-21.46 9.2,-29.97 6.13,-8.5 14.14,-15.92 24.03,-22.25 13.85,-8.31 30.06,-14.64 48.66,-18.99 18.59,-4.35 37.78,-6.53 57.56,-6.53 43.12,0 64.68,15.23 64.68,45.69 0,7.12 -0.99,13.75 -2.97,19.88 -1.98,6.13 -4.35,11.37 -7.12,15.72 -3.96,-0.79 -8.7,-1.39 -14.24,-1.78 -5.54,-0.4 -11.67,-0.59 -18.39,-0.59 -9.89,0 -20.37,1.19 -31.45,3.56 -11.07,2.37 -20.76,5.93 -29.07,10.68 z m -100.87,46.88 h 100.87 v 156.05 c -4.35,1.19 -10.58,2.37 -18.69,3.56 -8.11,1.19 -16.91,1.78 -26.41,1.78 -19.38,0 -33.52,-3.36 -42.43,-10.09 -8.9,-6.73 -13.35,-19.19 -13.35,-37.38 v -113.93 z m 531.06,12.46 c 0,31.65 -6.43,58.94 -19.28,81.89 -12.85,22.94 -30.85,40.65 -54,53.11 -23.14,12.46 -50.54,18.69 -82.18,18.69 -31.25,0 -58.54,-6.13 -81.88,-18.39 -23.34,-12.26 -41.44,-29.87 -54.3,-52.81 -12.85,-22.94 -19.28,-50.44 -19.28,-82.48 0,-31.25 6.53,-58.35 19.58,-81.29 13.05,-22.94 31.25,-40.65 54.59,-53.11 23.34,-12.46 50.44,-18.69 81.29,-18.69 31.25,0 58.45,6.33 81.59,18.99 23.14,12.66 41.24,30.46 54.3,53.4 13.05,22.94 19.58,49.84 19.58,80.7 z m -155.46,-74.17 c -16.22,0 -28.98,6.43 -38.27,19.28 -9.3,12.86 -13.94,31.15 -13.94,54.89 0,24.53 4.55,43.12 13.65,55.78 9.1,12.66 21.95,18.98 38.57,18.98 16.61,0 29.47,-6.43 38.57,-19.28 9.1,-12.85 13.65,-31.35 13.65,-55.48 0,-23.34 -4.65,-41.53 -13.94,-54.59 -9.3,-13.06 -22.05,-19.58 -38.27,-19.58 z m 205.9,61.71 h 99.69 v 57.56 c 0,9.89 3.26,17.11 9.79,21.66 6.53,4.55 15.72,6.82 27.59,6.82 5.94,0 12.07,-0.5 18.4,-1.48 6.33,-0.99 11.87,-2.27 16.61,-3.85 3.56,3.95 6.63,8.7 9.2,14.24 2.57,5.54 3.85,12.06 3.85,19.58 0,14.64 -5.63,26.8 -16.91,36.49 -11.28,9.69 -31.15,14.54 -59.63,14.54 -34.81,0 -61.61,-7.91 -80.4,-23.74 -18.79,-15.82 -28.18,-41.54 -28.18,-77.14 v -64.67 z m 65.27,-48.06 v -77.14 h 112.15 c 2.37,3.96 4.65,9.3 6.82,16.02 2.18,6.72 3.26,14.04 3.26,21.96 0,13.84 -3.07,23.83 -9.2,29.96 -6.13,6.13 -14.34,9.2 -24.63,9.2 h -88.41 z m 34.42,62.3 h -99.69 v -213.02 c 4.35,-1.19 10.58,-2.47 18.69,-3.85 8.11,-1.39 16.71,-2.08 25.81,-2.08 19.38,0 33.43,3.36 42.13,10.09 8.7,6.72 13.06,19.19 13.06,37.38 z m 180.98,43.31 -3.56,-66.46 137.07,-22.55 c -0.79,-7.91 -4.74,-15.82 -11.87,-23.74 -7.12,-7.91 -18.2,-11.87 -33.23,-11.87 -15.82,0 -28.98,5.14 -39.46,15.43 -10.48,10.29 -16.12,24.92 -16.91,43.91 l 3.56,49.84 c 3.95,18.2 12.95,30.85 27,37.98 14.04,7.12 29.77,10.68 47.17,10.68 16.61,0 32.44,-2.18 47.47,-6.53 15.03,-4.35 27.09,-9.1 36.19,-14.24 6.33,3.96 11.67,9.49 16.02,16.61 4.35,7.12 6.53,14.63 6.53,22.55 0,13.06 -4.85,23.83 -14.54,32.34 -9.69,8.5 -23.04,14.74 -40.05,18.69 -17.01,3.96 -36.59,5.93 -58.74,5.93 -30.85,0 -58.64,-5.83 -83.37,-17.5 -24.72,-11.67 -44.3,-29.17 -58.74,-52.51 -14.44,-23.34 -21.66,-52.61 -21.66,-87.82 0,-26.11 4.25,-48.65 12.76,-67.64 8.51,-18.99 19.88,-34.41 34.12,-46.28 14.24,-11.87 30.16,-20.67 47.76,-26.4 17.6,-5.74 35.7,-8.61 54.29,-8.61 28.09,0 52.61,5.44 73.58,16.32 20.96,10.88 37.38,25.71 49.25,44.5 11.87,18.79 17.8,40.45 17.8,64.98 0,13.45 -3.76,23.73 -11.28,30.85 -7.52,7.12 -18,11.67 -31.45,13.65 l -185.72,27.89 z m 439.68,-118.67 c -19.78,0 -36.89,6.33 -51.33,18.99 -14.44,12.66 -21.66,31.25 -21.66,55.78 0,24.52 6.92,42.72 20.77,54.59 13.85,11.87 31.05,17.8 51.62,17.8 11.87,0 22.45,-1.48 31.74,-4.45 9.3,-2.97 17.11,-6.04 23.44,-9.2 7.52,5.54 13.15,11.47 16.91,17.8 3.76,6.33 5.64,14.04 5.64,23.14 0,15.82 -7.81,28.48 -23.44,37.98 -15.62,9.49 -37.87,14.24 -66.75,14.24 -32.83,0 -61.41,-5.74 -85.74,-17.21 -24.33,-11.47 -43.12,-28.58 -56.37,-51.33 -13.25,-22.74 -19.88,-50.54 -19.88,-83.37 0,-34.81 7.32,-63.59 21.96,-86.33 14.63,-22.74 34.02,-39.76 58.15,-51.03 24.13,-11.28 50.43,-16.91 78.91,-16.91 28.09,0 49.94,5.14 65.57,15.43 15.63,10.28 23.44,23.54 23.44,39.76 0,7.52 -1.78,14.54 -5.34,21.06 -3.56,6.53 -7.71,12.17 -12.46,16.91 -6.72,-3.16 -14.83,-6.23 -24.33,-9.2 -9.5,-2.96 -19.78,-4.45 -30.85,-4.45 z m 412.39,96.13 h -100.87 v -52.81 c 0,-16.22 -4.05,-27.59 -12.16,-34.12 -8.11,-6.53 -18.1,-9.79 -29.96,-9.79 -11.87,0 -22.35,2.18 -31.45,6.53 -9.1,4.35 -17.01,9.1 -23.74,14.24 v -81.29 c 9.1,-4.74 19.98,-9 32.64,-12.76 12.66,-3.76 26.5,-5.64 41.54,-5.64 38.76,0 69.13,9.79 91.08,29.37 21.96,19.58 32.93,48.75 32.93,87.52 v 58.74 z m -283.63,-35.01 h 100.87 v 156.05 c -4.35,1.19 -10.58,2.37 -18.69,3.56 -8.11,1.19 -16.91,1.78 -26.4,1.78 -19.39,0 -33.53,-3.36 -42.43,-10.09 -8.9,-6.73 -13.35,-19.19 -13.35,-37.38 v -113.93 z m 182.75,0 h 100.87 v 156.05 c -4.35,1.19 -10.58,2.37 -18.69,3.56 -8.11,1.19 -16.91,1.78 -26.4,1.78 -19.39,0 -33.53,-3.36 -42.43,-10.09 -8.9,-6.73 -13.35,-19.19 -13.35,-37.38 v -113.93 z m -81.88,52.81 H 3460.2 v -283.04 c 4.35,-1.19 10.58,-2.37 18.69,-3.56 8.11,-1.19 16.91,-1.78 26.41,-1.78 19.78,0 34.02,3.26 42.72,9.79 8.7,6.53 13.06,19.09 13.06,37.68 v 240.91 z m 653.89,-203.52 c 0,9.89 -2.57,18.69 -7.71,26.41 -5.14,7.71 -11.07,13.74 -17.8,18.1 -9.89,-6.72 -20.77,-12.46 -32.64,-17.21 -11.87,-4.75 -25.51,-7.12 -40.94,-7.12 -20.17,0 -37.28,4.26 -51.33,12.76 -14.04,8.5 -24.72,20.77 -32.04,36.79 -7.32,16.02 -10.98,35.31 -10.98,57.85 0,34.81 8.8,61.31 26.4,79.51 17.6,18.2 42.03,27.3 73.28,27.3 16.22,0 29.97,-2.17 41.24,-6.53 11.28,-4.35 22.06,-9.3 32.34,-14.83 6.72,5.15 11.96,11.67 15.72,19.58 3.76,7.91 5.64,17.01 5.64,27.3 0,9.1 -2.37,17.41 -7.12,24.92 -4.75,7.52 -12.85,13.85 -24.33,18.99 -7.12,3.17 -17.21,6.33 -30.26,9.49 -13.05,3.17 -28.87,4.75 -47.47,4.75 -35.6,0 -67.94,-6.72 -97.01,-20.17 -29.07,-13.45 -52.22,-34.22 -69.43,-62.3 -17.21,-28.09 -25.81,-64.09 -25.81,-107.99 0,-41.14 8.31,-75.85 24.92,-104.14 16.61,-28.28 39.06,-49.84 67.35,-64.67 28.28,-14.83 59.44,-22.25 93.45,-22.25 24.13,0 44.7,2.77 61.71,8.31 17.01,5.54 30.06,13.05 39.16,22.55 9.1,9.49 13.65,20.37 13.65,32.63 z m 339.4,163.17 c 0,31.65 -6.43,58.94 -19.28,81.89 -12.85,22.94 -30.85,40.65 -54,53.11 -23.14,12.46 -50.54,18.69 -82.18,18.69 -31.25,0 -58.54,-6.13 -81.88,-18.39 -23.34,-12.26 -41.44,-29.87 -54.3,-52.81 -12.85,-22.94 -19.28,-50.44 -19.28,-82.48 0,-31.25 6.53,-58.35 19.58,-81.29 13.05,-22.94 31.25,-40.65 54.59,-53.11 23.34,-12.46 50.44,-18.69 81.29,-18.69 31.25,0 58.45,6.33 81.59,18.99 23.14,12.66 41.24,30.46 54.3,53.4 13.05,22.94 19.58,49.84 19.58,80.7 z m -155.46,-74.17 c -16.22,0 -28.98,6.43 -38.27,19.28 -9.3,12.86 -13.94,31.15 -13.94,54.89 0,24.53 4.55,43.12 13.65,55.78 9.1,12.66 21.95,18.98 38.57,18.98 16.61,0 29.47,-6.43 38.57,-19.28 9.1,-12.85 13.65,-31.35 13.65,-55.48 0,-23.34 -4.65,-41.53 -13.94,-54.59 -9.3,-13.06 -22.05,-19.58 -38.27,-19.58 z m 488.33,32.64 v 54.59 h -100.87 v -51.62 c 0,-12.26 -3.66,-21.26 -10.98,-27 -7.32,-5.74 -16.91,-8.61 -28.78,-8.61 -7.91,0 -15.33,0.99 -22.25,2.97 -6.92,1.98 -13.55,4.55 -19.87,7.71 v 76.54 h -100.87 v -90.19 c 0,-10.68 2.28,-19.39 6.82,-26.11 4.55,-6.72 10.78,-12.85 18.69,-18.39 13.45,-9.49 30.46,-17.11 51.03,-22.84 20.57,-5.74 43.12,-8.61 67.65,-8.61 44.7,0 79.11,9.79 103.24,29.37 24.13,19.58 36.19,46.97 36.19,82.18 z m -283.63,29.07 h 100.87 v 156.05 c -4.35,1.19 -10.58,2.37 -18.69,3.56 -8.11,1.19 -16.91,1.78 -26.41,1.78 -19.38,0 -33.52,-3.36 -42.43,-10.09 -8.9,-6.73 -13.35,-19.19 -13.35,-37.38 v -113.93 z m 182.76,0 h 100.87 v 156.05 c -4.35,1.19 -10.58,2.37 -18.69,3.56 -8.11,1.19 -16.91,1.78 -26.41,1.78 -19.38,0 -33.52,-3.36 -42.43,-10.09 -8.9,-6.73 -13.35,-19.19 -13.35,-37.38 v -113.93 z m 406.45,70.61 c 0,30.07 -11.37,53.6 -34.12,70.61 -22.75,17.01 -55.87,25.52 -99.39,25.52 -33.62,0 -61.21,-4.85 -82.77,-14.54 -21.56,-9.69 -32.34,-24.82 -32.34,-45.39 0,-9.49 1.98,-17.6 5.93,-24.33 3.96,-6.72 8.7,-12.07 14.24,-16.02 11.47,6.33 24.63,11.97 39.46,16.91 14.83,4.94 31.94,7.42 51.33,7.42 25.32,0 37.98,-6.53 37.98,-19.58 0,-5.54 -2.37,-9.89 -7.12,-13.06 -4.74,-3.16 -12.66,-5.73 -23.73,-7.71 l -17.8,-3.56 c -34.02,-6.72 -59.53,-17.41 -76.54,-32.04 -17.01,-14.63 -25.51,-35.2 -25.51,-61.71 0,-29.67 12.06,-52.81 36.19,-69.42 24.13,-16.61 55.58,-24.92 94.35,-24.92 19.38,0 37.08,1.88 53.11,5.63 16.02,3.76 28.78,9.69 38.27,17.8 9.49,8.11 14.24,18.49 14.24,31.15 0,8.7 -1.68,16.42 -5.04,23.14 -3.36,6.72 -7.61,12.26 -12.76,16.61 -4.35,-2.77 -11.17,-5.54 -20.47,-8.31 -9.3,-2.77 -19.29,-5.14 -29.96,-7.12 -10.68,-1.98 -20.18,-2.97 -28.48,-2.97 -13.05,0 -23.14,1.48 -30.26,4.45 -7.12,2.97 -10.68,7.61 -10.68,13.94 0,4.35 1.98,7.91 5.93,10.68 3.96,2.77 11.47,5.34 22.55,7.71 l 18.39,4.15 c 37.98,8.7 64.98,20.67 81,35.9 16.02,15.23 24.03,34.91 24.03,59.04 z m 48.65,-28.48 v -39.16 h 100.87 v 39.16 c 0,15.82 4.05,27.3 12.16,34.42 8.11,7.12 19.48,10.68 34.12,10.68 9.1,0 16.61,-0.79 22.55,-2.37 5.93,-1.58 10.29,-3.17 13.06,-4.75 v -77.14 h 100.87 v 91.97 c 0,9.89 -2.07,18.49 -6.23,25.81 -4.15,7.32 -10.39,13.55 -18.69,18.69 -13.84,8.7 -30.36,15.33 -49.54,19.88 -19.19,4.55 -40.05,6.82 -62.6,6.82 -28.48,0 -53.8,-4.25 -75.95,-12.76 -22.15,-8.5 -39.46,-21.85 -51.92,-40.05 -12.46,-18.2 -18.69,-41.93 -18.69,-71.2 z m 283.63,-13.65 H 5424.22 V 5258.1 c 4.35,-1.19 10.58,-2.37 18.69,-3.56 8.11,-1.19 16.91,-1.78 26.4,-1.78 19.78,0 34.02,3.26 42.72,9.79 8.7,6.53 13.05,19.09 13.05,37.68 v 116.89 z m -182.75,0 H 5241.47 V 5258.1 c 4.35,-1.19 10.58,-2.37 18.69,-3.56 8.11,-1.19 16.91,-1.78 26.4,-1.78 19.78,0 34.02,3.26 42.72,9.79 8.7,6.53 13.06,19.09 13.06,37.68 z m 247.43,-28.48 h 100.87 v 156.05 c -4.35,1.19 -10.58,2.37 -18.69,3.56 -8.11,1.19 -16.91,1.78 -26.41,1.78 -19.39,0 -33.53,-3.36 -42.43,-10.09 -8.9,-6.73 -13.35,-19.19 -13.35,-37.38 v -113.93 z m 100.87,52.81 h -100.87 v -283.04 c 4.35,-1.19 10.58,-2.37 18.69,-3.56 8.11,-1.19 16.91,-1.78 26.41,-1.78 19.78,0 34.02,3.26 42.72,9.79 8.7,6.53 13.06,19.09 13.06,37.68 v 240.91 z m 65.87,-52.81 h 99.69 v 57.56 c 0,9.89 3.26,17.11 9.79,21.66 6.53,4.55 15.72,6.82 27.59,6.82 5.94,0 12.07,-0.5 18.4,-1.48 6.33,-0.99 11.87,-2.27 16.61,-3.85 3.56,3.95 6.63,8.7 9.2,14.24 2.57,5.54 3.85,12.06 3.85,19.58 0,14.64 -5.63,26.8 -16.91,36.49 -11.28,9.69 -31.15,14.54 -59.63,14.54 -34.81,0 -61.61,-7.91 -80.4,-23.74 -18.79,-15.82 -28.18,-41.54 -28.18,-77.14 v -64.67 z m 65.27,-48.06 v -77.14 h 112.15 c 2.37,3.96 4.65,9.3 6.82,16.02 2.18,6.72 3.26,14.04 3.26,21.96 0,13.84 -3.07,23.83 -9.2,29.96 -6.13,6.13 -14.34,9.2 -24.63,9.2 h -88.41 z m 34.42,62.3 h -99.69 v -213.02 c 4.35,-1.19 10.58,-2.47 18.69,-3.85 8.11,-1.39 16.71,-2.08 25.81,-2.08 19.38,0 33.43,3.36 42.13,10.09 8.7,6.72 13.06,19.19 13.06,37.38 z m 258.11,151.9 c -41.54,0 -74.86,-8.01 -99.98,-24.03 -25.12,-16.02 -37.68,-40.25 -37.68,-72.69 0,-27.3 8.21,-48.26 24.63,-62.9 16.41,-14.63 41.43,-23.73 75.06,-27.29 l 77.73,-8.31 v -4.15 c 0,-11.47 -5.04,-19.68 -15.13,-24.63 -10.09,-4.94 -24.62,-7.42 -43.61,-7.42 -14.64,0 -29.17,1.58 -43.61,4.75 -14.44,3.16 -27.39,7.12 -38.86,11.87 -5.15,-3.56 -9.5,-9 -13.06,-16.32 -3.56,-7.31 -5.34,-14.93 -5.34,-22.84 0,-18.99 10.09,-32.44 30.26,-40.35 11.47,-4.35 25.02,-7.52 40.65,-9.49 15.63,-1.98 30.36,-2.97 44.2,-2.97 43.12,0 77.63,8.8 103.54,26.41 25.91,17.6 38.86,45 38.86,82.18 v 132.91 c 0,10.28 -2.87,18.69 -8.6,25.22 -5.74,6.53 -12.56,12.17 -20.47,16.91 -12.66,7.52 -28.08,13.25 -46.28,17.2 -18.2,3.96 -38.96,5.93 -62.3,5.93 z m 0,-73.57 c 6.72,0 14.14,-0.69 22.25,-2.08 8.11,-1.38 14.14,-3.26 18.1,-5.63 v -47.47 l -42.72,3.56 c -11.08,0.79 -20.17,3.17 -27.3,7.12 -7.12,3.96 -10.68,9.89 -10.68,17.8 0,7.91 3.07,14.34 9.2,19.28 6.13,4.94 16.52,7.42 31.15,7.42 z m 482.99,-121.64 v 54.59 h -100.87 v -51.62 c 0,-12.26 -3.66,-21.26 -10.98,-27 -7.32,-5.74 -16.91,-8.61 -28.78,-8.61 -7.91,0 -15.33,0.99 -22.25,2.97 -6.92,1.98 -13.55,4.55 -19.87,7.71 v 76.54 h -100.87 v -90.19 c 0,-10.68 2.28,-19.39 6.82,-26.11 4.55,-6.72 10.78,-12.85 18.69,-18.39 13.45,-9.49 30.46,-17.11 51.03,-22.84 20.57,-5.74 43.12,-8.61 67.65,-8.61 44.7,0 79.11,9.79 103.24,29.37 24.13,19.58 36.19,46.97 36.19,82.18 z m -283.63,29.07 h 100.87 v 156.05 c -4.35,1.19 -10.58,2.37 -18.69,3.56 -8.11,1.19 -16.91,1.78 -26.41,1.78 -19.38,0 -33.52,-3.36 -42.43,-10.09 -8.9,-6.73 -13.35,-19.19 -13.35,-37.38 v -113.93 z m 182.76,0 h 100.87 v 156.05 c -4.35,1.19 -10.58,2.37 -18.69,3.56 -8.11,1.19 -16.91,1.78 -26.41,1.78 -19.38,0 -33.52,-3.36 -42.43,-10.09 -8.9,-6.73 -13.35,-19.19 -13.35,-37.38 v -113.93 z m 325.76,-61.12 c -19.78,0 -36.89,6.33 -51.33,18.99 -14.44,12.66 -21.66,31.25 -21.66,55.78 0,24.52 6.92,42.72 20.77,54.59 13.85,11.87 31.05,17.8 51.62,17.8 11.87,0 22.45,-1.48 31.74,-4.45 9.3,-2.97 17.11,-6.04 23.44,-9.2 7.52,5.54 13.15,11.47 16.91,17.8 3.76,6.33 5.64,14.04 5.64,23.14 0,15.82 -7.81,28.48 -23.44,37.98 -15.62,9.49 -37.87,14.24 -66.75,14.24 -32.83,0 -61.41,-5.74 -85.74,-17.21 -24.33,-11.47 -43.12,-28.58 -56.37,-51.33 -13.25,-22.74 -19.88,-50.54 -19.88,-83.37 0,-34.81 7.32,-63.59 21.96,-86.33 14.63,-22.74 34.02,-39.76 58.15,-51.03 24.13,-11.28 50.43,-16.91 78.91,-16.91 28.09,0 49.94,5.14 65.57,15.43 15.63,10.28 23.44,23.54 23.44,39.76 0,7.52 -1.78,14.54 -5.34,21.06 -3.56,6.53 -7.71,12.17 -12.46,16.91 -6.72,-3.16 -14.83,-6.23 -24.33,-9.2 -9.5,-2.96 -19.78,-4.45 -30.85,-4.45 z m 172.67,144.19 c -5.93,-13.45 -12.26,-28.97 -18.98,-46.58 -6.73,-17.6 -13.75,-38.76 -21.07,-63.49 -7.32,-24.72 -15.33,-54.69 -24.03,-89.89 5.54,-5.54 12.96,-10.39 22.25,-14.54 9.3,-4.15 19.48,-6.23 30.56,-6.23 13.84,0 25.31,2.87 34.41,8.6 9.1,5.74 15.82,16.52 20.18,32.34 7.91,27.69 15.82,55.08 23.73,82.18 7.91,27.1 15.63,54.09 23.14,80.99 h 2.37 c 6.33,-18.19 12.56,-38.17 18.69,-59.93 6.13,-21.76 11.87,-44.01 17.21,-66.75 5.34,-22.74 9.79,-44.8 13.35,-66.16 6.72,-3.56 13.65,-6.33 20.77,-8.31 7.12,-1.98 14.64,-2.96 22.55,-2.96 13.85,0 25.91,2.96 36.2,8.9 10.28,5.93 15.43,16.22 15.43,30.85 0,12.66 -1.58,27.3 -4.74,43.91 -3.17,16.61 -7.52,34.22 -13.06,52.81 -5.54,18.59 -11.87,37.28 -18.99,56.07 -7.12,18.79 -14.64,36.79 -22.55,54 -7.91,17.2 -15.82,32.73 -23.74,46.58 -22.15,38.37 -42.72,66.85 -61.71,85.44 -18.99,18.59 -38.17,27.89 -57.56,27.89 -15.82,0 -29.07,-4.94 -39.76,-14.83 -10.68,-9.89 -17.01,-22.74 -18.99,-38.57 8.31,-7.12 16.71,-14.83 25.22,-23.14 8.51,-8.31 16.72,-17.11 24.63,-26.41 7.91,-9.3 15.03,-18.49 21.36,-27.59 -6.72,-1.98 -13.94,-6.63 -21.66,-13.94 -7.72,-7.32 -16.12,-21.06 -25.22,-41.24 z"
       id="path219"
       style="fill:url(#linearGradient809)" /><path
       class="fil6"
       d="m 2222.14,5967.57 h 82.04 v 206.76 c -3.44,0.94 -8.75,1.87 -15.94,2.81 -7.19,0.94 -14.54,1.41 -22.04,1.41 -16.26,0 -27.66,-2.89 -34.23,-8.67 -6.56,-5.78 -9.84,-15.86 -9.84,-30.24 v -172.07 z m 82.04,108.3 h -82.04 v -186.13 c 3.75,-0.62 9.3,-1.48 16.64,-2.58 7.35,-1.09 14.46,-1.64 21.33,-1.64 15.63,0 26.88,2.65 33.76,7.97 6.87,5.31 10.31,15.63 10.31,30.94 v 151.43 z m 488.43,-55.32 h 23.44 c 13.13,0 23.91,-3.05 32.35,-9.14 8.44,-6.09 12.66,-15.08 12.66,-26.96 0,-11.87 -3.83,-20.86 -11.49,-26.96 -7.66,-6.09 -19.77,-9.14 -36.33,-9.14 -4.06,0 -7.66,0.16 -10.78,0.47 -3.13,0.31 -6.41,0.78 -9.85,1.41 v 70.33 z m 31.88,62.35 H 2711.5 v -165.5 c 0,-6.56 1.87,-11.64 5.63,-15.24 3.75,-3.59 8.59,-6.48 14.53,-8.67 10.63,-3.75 22.97,-6.48 37.04,-8.2 14.06,-1.72 29.07,-2.58 45.01,-2.58 43.13,0 75.64,9.14 97.52,27.43 21.88,18.28 32.82,42.74 32.82,73.37 0,19.07 -5.39,36.1 -16.18,51.11 -10.78,15 -25.16,26.8 -43.13,35.4 -17.97,8.59 -38.05,12.89 -60.24,12.89 z m -17.35,-18.28 74.54,-15 c 6.88,9.38 13.91,18.6 21.1,27.66 7.19,9.07 13.99,17.82 20.39,26.26 6.41,8.44 12.27,16.25 17.58,23.44 5.31,7.19 9.53,13.44 12.66,18.76 -3.13,10.63 -8.83,18.91 -17.11,24.85 -8.28,5.94 -17.58,8.91 -27.9,8.91 -13.44,0 -23.68,-2.97 -30.71,-8.91 -7.03,-5.94 -13.52,-13.75 -19.46,-23.44 l -51.1,-82.52 z m -95.64,-13.59 h 82.04 v 123.3 c -3.44,0.94 -8.75,1.87 -15.94,2.81 -7.19,0.94 -14.54,1.41 -22.04,1.41 -16.26,0 -27.66,-2.89 -34.23,-8.67 -6.56,-5.78 -9.84,-15.86 -9.84,-30.24 v -88.61 z m 631.89,-83.46 h 79.7 v 204.41 c -3.44,0.94 -8.44,1.88 -15,2.81 -6.56,0.94 -13.59,1.41 -21.1,1.41 -13.44,0 -24.07,-3.91 -31.88,-11.72 -7.81,-7.81 -11.72,-18.44 -11.72,-31.88 z m 79.7,131.74 h -79.7 v -165.03 c 0,-13.44 3.91,-24.07 11.72,-31.88 7.81,-7.81 18.44,-11.72 31.88,-11.72 7.5,0 14.54,0.47 21.1,1.41 6.56,0.94 11.57,1.87 15,2.81 z m -36.1,-37.04 v -63.76 h 141.59 c 2.19,3.44 4.14,7.81 5.86,13.13 1.72,5.31 2.58,11.25 2.58,17.82 0,11.56 -2.5,19.93 -7.5,25.08 -5,5.16 -11.88,7.74 -20.63,7.74 h -121.9 z m 0,113.93 v -64.7 h 156.59 c 2.19,3.44 4.14,7.97 5.86,13.59 1.72,5.63 2.58,11.72 2.58,18.28 0,11.57 -2.5,19.93 -7.5,25.08 -5,5.16 -11.88,7.74 -20.63,7.74 h -136.9 z m 0,-221.29 v -64.23 h 154.72 c 2.19,3.44 4.14,7.81 5.86,13.13 1.72,5.31 2.58,11.25 2.58,17.81 0,11.57 -2.5,20 -7.5,25.32 -5,5.31 -11.88,7.97 -20.63,7.97 z m 559.69,12.66 h 82.04 v 204.41 l -38.44,4.22 c -13.44,0 -24.07,-3.91 -31.88,-11.72 -7.81,-7.81 -11.72,-18.44 -11.72,-31.88 z m 43.6,208.63 v -66.11 h 145.81 c 2.19,3.44 4.22,7.97 6.09,13.6 1.87,5.63 2.81,11.72 2.81,18.28 0,11.56 -2.5,20.16 -7.5,25.79 -5,5.63 -11.88,8.44 -20.63,8.44 h -126.59 z m 38.44,-100.33 h -82.04 v -186.13 c 3.75,-0.62 9.3,-1.48 16.64,-2.58 7.35,-1.09 14.46,-1.64 21.33,-1.64 15.63,0 26.88,2.65 33.76,7.97 6.87,5.31 10.31,15.63 10.31,30.94 v 151.43 z m 629.07,-116.27 h -2.81 c -2.81,8.75 -5.94,18.28 -9.38,28.6 -3.44,10.31 -7.03,21.18 -10.78,32.59 -3.75,11.41 -7.35,23.2 -10.78,35.39 l -10.31,52.98 c -1.87,6.25 -3.52,12.35 -4.92,18.28 -1.41,5.94 -2.81,11.57 -4.22,16.88 -1.41,5.31 -2.74,10.47 -3.98,15.47 -1.25,5 -2.5,9.85 -3.75,14.54 -4.06,1.25 -8.59,2.5 -13.59,3.75 -5,1.25 -10.94,1.87 -17.82,1.87 -15.63,0 -27.35,-2.74 -35.16,-8.2 -7.81,-5.47 -11.72,-13.05 -11.72,-22.74 0,-4.37 0.63,-8.75 1.87,-13.13 1.25,-4.38 2.66,-9.53 4.22,-15.47 2.5,-10 6.25,-22.89 11.25,-38.68 5,-15.79 10.55,-32.82 16.65,-51.11 6.09,-18.28 12.19,-36.18 18.28,-53.68 6.09,-17.5 11.64,-33.21 16.64,-47.12 5,-13.91 8.75,-24.15 11.25,-30.71 5.31,-3.13 13.44,-6.09 24.38,-8.91 10.94,-2.81 21.72,-4.22 32.35,-4.22 15.63,0 29.54,2.26 41.72,6.8 12.19,4.54 19.85,11.8 22.98,21.8 5.63,15.94 11.64,34.61 18.05,56.02 6.41,21.41 12.97,43.76 19.69,67.05 6.72,23.28 13.2,45.94 19.46,67.98 6.25,22.04 11.72,41.8 16.41,59.31 -3.75,4.06 -9.38,7.5 -16.88,10.31 -7.5,2.81 -16.41,4.22 -26.72,4.22 -15.31,0 -25.94,-2.58 -31.88,-7.74 -5.94,-5.16 -10.31,-13.05 -13.13,-23.68 l -11.72,-45.01 -9.38,-48.29 c -3.13,-12.19 -6.25,-23.91 -9.38,-35.16 -3.13,-11.25 -6.09,-21.96 -8.91,-32.11 -2.81,-10.16 -5.47,-19.46 -7.97,-27.9 z m -79.23,156.12 32.35,-63.29 h 103.14 l 9.85,63.29 z m 600.01,-128.46 h 75.48 c 1.25,14.38 2.11,28.13 2.58,41.26 0.47,13.13 0.7,25.56 0.7,37.28 0,11.72 0,23.2 0,34.46 v 74.55 c -3.13,0.63 -8.2,1.41 -15.24,2.34 -7.04,0.94 -14.15,1.41 -21.33,1.41 -15.63,0 -26.57,-2.74 -32.82,-8.2 -6.25,-5.47 -9.37,-15.24 -9.37,-29.3 v -153.78 z m 257.39,89.08 h -75.48 c -1.88,-21.88 -2.89,-42.04 -3.05,-60.48 -0.15,-18.44 -0.23,-35.94 -0.23,-52.51 v -74.08 c 3.44,-0.63 8.59,-1.41 15.47,-2.34 6.87,-0.94 13.91,-1.41 21.1,-1.41 15.63,0 26.57,2.73 32.81,8.2 6.25,5.47 9.38,15.24 9.38,29.3 v 153.31 z m 0,-25.31 v -59.07 173 c -4.37,4.06 -10.7,7.35 -18.99,9.85 -8.28,2.5 -18.2,3.75 -29.77,3.75 -11.56,0 -22.5,-1.72 -32.82,-5.16 -10.31,-3.44 -18.75,-11.72 -25.31,-24.85 l -46.42,-94.7 c -3.13,-6.56 -6.02,-12.74 -8.67,-18.52 -2.65,-5.78 -5.23,-11.8 -7.74,-18.05 -2.5,-6.25 -5.31,-13.13 -8.44,-20.63 l -79.23,17.35 v -108.77 c 4.37,-6.25 11.09,-10.94 20.16,-14.06 9.06,-3.13 18.76,-4.69 29.07,-4.69 11.57,0 22.58,1.8 33.06,5.39 10.47,3.59 18.83,11.8 25.08,24.61 l 46.88,94.7 c 3.13,6.25 6.02,12.35 8.68,18.29 2.65,5.94 5.31,12.03 7.97,18.28 2.66,6.25 5.39,13.13 8.2,20.63 l 78.3,-17.35 z m 588.29,-17.35 c 0,27.51 -6.8,48.13 -20.39,61.89 -13.59,13.75 -31.02,20.63 -52.28,20.63 -4.06,0 -8.67,-0.23 -13.83,-0.7 -5.16,-0.47 -9.45,-1.02 -12.89,-1.64 V 5950.7 c 4.69,-0.62 9.3,-1.09 13.83,-1.41 4.53,-0.31 8.99,-0.47 13.36,-0.47 14.69,0 27.43,3.2 38.21,9.61 10.78,6.41 19.14,15.86 25.08,28.37 5.94,12.5 8.91,28.13 8.91,46.88 z m 84.39,-1.41 c 0,-34.07 -6.8,-62.12 -20.4,-84.16 -13.59,-22.04 -32.5,-38.44 -56.73,-49.23 -24.22,-10.78 -52.59,-16.17 -85.09,-16.17 -11.88,0 -25.31,0.7 -40.32,2.11 -15,1.41 -29.22,4.3 -42.67,8.67 -5.94,2.19 -10.78,5.08 -14.53,8.67 -3.75,3.59 -5.63,8.67 -5.63,15.24 v 218.95 c 0,16.25 8.59,27.66 25.78,34.22 12.5,4.69 26.65,7.81 42.43,9.38 15.79,1.56 28.99,2.34 39.62,2.34 31.57,0 59.15,-5.55 82.75,-16.64 23.6,-11.1 41.96,-27.74 55.09,-49.93 13.13,-22.19 19.69,-50.01 19.69,-83.45 z"
       id="path233"
       style="fill:url(#id7)" /><path
       class="fil7"
       d="m 1355.53,5456.88 c -5.15,3.95 -11.77,7.31 -19.88,10.09 -8.11,2.77 -17.5,4.15 -28.19,4.15 -14.24,0 -26.01,-1.78 -35.31,-5.34 -9.3,-3.56 -15.33,-9.69 -18.1,-18.39 -11.07,-35.2 -20.17,-63.49 -27.29,-84.85 -7.12,-21.36 -12.66,-40.15 -16.61,-56.37 h -2.97 c -1.19,23.34 -2.07,44.6 -2.67,63.79 -0.59,19.19 -0.99,37.78 -1.19,55.78 -0.2,18 -0.59,36.39 -1.19,55.19 -0.59,18.79 -1.48,39.46 -2.67,62 -5.14,1.58 -11.87,3.17 -20.17,4.75 -8.31,1.58 -16.61,2.37 -24.92,2.37 -17.01,0 -30.46,-2.77 -40.35,-8.31 -9.89,-5.54 -14.83,-15.63 -14.83,-30.26 0,-9.89 0.4,-23.44 1.19,-40.65 0.79,-17.2 1.88,-36.59 3.26,-58.15 1.39,-21.56 2.77,-44.2 4.15,-67.94 1.39,-23.74 2.87,-47.27 4.45,-70.61 1.58,-23.34 2.96,-45.1 4.15,-65.27 3.17,-5.14 10.09,-10.68 20.77,-16.61 10.68,-5.93 25.71,-8.9 45.09,-8.9 20.96,0 37.48,3.26 49.55,9.79 12.06,6.53 20.67,17.11 25.81,31.74 4.74,12.66 9.89,27.59 15.43,44.8 5.54,17.21 11.08,34.61 16.61,52.22 5.54,17.6 10.48,33.33 14.83,47.17 h 2.97 c 9.49,-32.83 19.09,-64.97 28.78,-96.42 9.69,-31.45 18.3,-57.46 25.81,-78.03 5.94,-3.17 13.65,-5.83 23.14,-8.01 9.5,-2.17 19.78,-3.26 30.85,-3.26 19.39,0 35.21,2.87 47.47,8.61 12.26,5.74 19.38,13.94 21.36,24.62 1.58,7.91 3.26,19.98 5.04,36.2 1.78,16.22 3.66,34.81 5.64,55.78 1.98,20.96 3.96,42.82 5.93,65.57 1.98,22.74 3.86,44.8 5.64,66.16 1.78,21.36 3.26,40.65 4.45,57.85 1.19,17.21 1.98,30.76 2.37,40.65 -6.72,3.96 -13.74,6.82 -21.06,8.6 -7.32,1.78 -16.71,2.67 -28.19,2.67 -14.64,0 -27.2,-2.57 -37.68,-7.72 -10.48,-5.14 -16.12,-15.23 -16.91,-30.26 -1.58,-28.88 -2.77,-55.78 -3.56,-80.7 -0.79,-24.92 -1.39,-47.67 -1.78,-68.24 -0.4,-20.57 -0.99,-38.57 -1.78,-54 H 1400 c -3.96,15.43 -9.69,34.81 -17.21,58.15 -7.52,23.34 -16.61,53.2 -27.29,89.6 z m 214.2,-280.07 c 0,-15.03 5.14,-27.69 15.43,-37.98 10.28,-10.28 23.54,-15.43 39.76,-15.43 16.22,0 29.47,5.15 39.76,15.43 10.28,10.28 15.43,22.94 15.43,37.98 0,14.63 -5.14,27.19 -15.43,37.68 -10.29,10.48 -23.54,15.72 -39.76,15.72 -16.22,0 -29.47,-5.24 -39.76,-15.72 -10.29,-10.48 -15.43,-23.04 -15.43,-37.68 z m 4.75,211.83 h 100.87 v 156.05 c -4.35,1.19 -10.58,2.37 -18.69,3.56 -8.11,1.19 -16.91,1.78 -26.41,1.78 -19.38,0 -33.52,-3.36 -42.43,-10.09 -8.9,-6.73 -13.35,-19.19 -13.35,-37.38 v -113.93 z m 100.87,52.81 h -100.87 v -180.38 c 4.35,-1.19 10.58,-2.37 18.69,-3.56 8.11,-1.19 16.91,-1.78 26.41,-1.78 19.78,0 34.02,3.26 42.72,9.79 8.7,6.53 13.05,19.09 13.05,37.68 z m 226.67,-113.93 c -19.78,0 -36.89,6.33 -51.33,18.99 -14.44,12.66 -21.66,31.25 -21.66,55.78 0,24.52 6.92,42.72 20.77,54.59 13.85,11.87 31.05,17.8 51.62,17.8 11.87,0 22.45,-1.48 31.74,-4.45 9.3,-2.97 17.11,-6.04 23.44,-9.2 7.52,5.54 13.15,11.47 16.91,17.8 3.76,6.33 5.64,14.04 5.64,23.14 0,15.82 -7.81,28.48 -23.44,37.98 -15.62,9.49 -37.87,14.24 -66.75,14.24 -32.83,0 -61.41,-5.74 -85.74,-17.21 -24.33,-11.47 -43.12,-28.58 -56.37,-51.33 -13.25,-22.74 -19.88,-50.54 -19.88,-83.37 0,-34.81 7.32,-63.59 21.96,-86.33 14.63,-22.74 34.02,-39.76 58.15,-51.03 24.13,-11.28 50.43,-16.91 78.91,-16.91 28.09,0 49.94,5.14 65.57,15.43 15.63,10.28 23.44,23.54 23.44,39.76 0,7.52 -1.78,14.54 -5.34,21.06 -3.56,6.53 -7.71,12.17 -12.46,16.91 -6.72,-3.16 -14.83,-6.23 -24.33,-9.2 -9.5,-2.96 -19.78,-4.45 -30.85,-4.45 z m 228.44,14.24 v 67.64 h -100.87 v -83.07 c 0,-11.47 3.07,-21.46 9.2,-29.97 6.13,-8.5 14.14,-15.92 24.03,-22.25 13.85,-8.31 30.06,-14.64 48.66,-18.99 18.59,-4.35 37.78,-6.53 57.56,-6.53 43.12,0 64.68,15.23 64.68,45.69 0,7.12 -0.99,13.75 -2.97,19.88 -1.98,6.13 -4.35,11.37 -7.12,15.72 -3.96,-0.79 -8.7,-1.39 -14.24,-1.78 -5.54,-0.4 -11.67,-0.59 -18.39,-0.59 -9.89,0 -20.37,1.19 -31.45,3.56 -11.07,2.37 -20.76,5.93 -29.07,10.68 z m -100.87,46.88 h 100.87 v 156.05 c -4.35,1.19 -10.58,2.37 -18.69,3.56 -8.11,1.19 -16.91,1.78 -26.41,1.78 -19.38,0 -33.52,-3.36 -42.43,-10.09 -8.9,-6.73 -13.35,-19.19 -13.35,-37.38 v -113.93 z m 531.06,12.46 c 0,31.65 -6.43,58.94 -19.28,81.89 -12.85,22.94 -30.85,40.65 -54,53.11 -23.14,12.46 -50.54,18.69 -82.18,18.69 -31.25,0 -58.54,-6.13 -81.88,-18.39 -23.34,-12.26 -41.44,-29.87 -54.3,-52.81 -12.85,-22.94 -19.28,-50.44 -19.28,-82.48 0,-31.25 6.53,-58.35 19.58,-81.29 13.05,-22.94 31.25,-40.65 54.59,-53.11 23.34,-12.46 50.44,-18.69 81.29,-18.69 31.25,0 58.45,6.33 81.59,18.99 23.14,12.66 41.24,30.46 54.3,53.4 13.05,22.94 19.58,49.84 19.58,80.7 z m -155.46,-74.17 c -16.22,0 -28.98,6.43 -38.27,19.28 -9.3,12.86 -13.94,31.15 -13.94,54.89 0,24.53 4.55,43.12 13.65,55.78 9.1,12.66 21.95,18.98 38.57,18.98 16.61,0 29.47,-6.43 38.57,-19.28 9.1,-12.85 13.65,-31.35 13.65,-55.48 0,-23.34 -4.65,-41.53 -13.94,-54.59 -9.3,-13.06 -22.05,-19.58 -38.27,-19.58 z m 205.9,61.71 h 99.69 v 57.56 c 0,9.89 3.26,17.11 9.79,21.66 6.53,4.55 15.72,6.82 27.59,6.82 5.94,0 12.07,-0.5 18.4,-1.48 6.33,-0.99 11.87,-2.27 16.61,-3.85 3.56,3.95 6.63,8.7 9.2,14.24 2.57,5.54 3.85,12.06 3.85,19.58 0,14.64 -5.63,26.8 -16.91,36.49 -11.28,9.69 -31.15,14.54 -59.63,14.54 -34.81,0 -61.61,-7.91 -80.4,-23.74 -18.79,-15.82 -28.18,-41.54 -28.18,-77.14 v -64.67 z m 65.27,-48.06 v -77.14 h 112.15 c 2.37,3.96 4.65,9.3 6.82,16.02 2.18,6.72 3.26,14.04 3.26,21.96 0,13.84 -3.07,23.83 -9.2,29.96 -6.13,6.13 -14.34,9.2 -24.63,9.2 h -88.41 z m 34.42,62.3 h -99.69 v -213.02 c 4.35,-1.19 10.58,-2.47 18.69,-3.85 8.11,-1.39 16.71,-2.08 25.81,-2.08 19.38,0 33.43,3.36 42.13,10.09 8.7,6.72 13.06,19.19 13.06,37.38 z m 180.98,43.31 -3.56,-66.46 137.07,-22.55 c -0.79,-7.91 -4.74,-15.82 -11.87,-23.74 -7.12,-7.91 -18.2,-11.87 -33.23,-11.87 -15.82,0 -28.98,5.14 -39.46,15.43 -10.48,10.29 -16.12,24.92 -16.91,43.91 l 3.56,49.84 c 3.95,18.2 12.95,30.85 27,37.98 14.04,7.12 29.77,10.68 47.17,10.68 16.61,0 32.44,-2.18 47.47,-6.53 15.03,-4.35 27.09,-9.1 36.19,-14.24 6.33,3.96 11.67,9.49 16.02,16.61 4.35,7.12 6.53,14.63 6.53,22.55 0,13.06 -4.85,23.83 -14.54,32.34 -9.69,8.5 -23.04,14.74 -40.05,18.69 -17.01,3.96 -36.59,5.93 -58.74,5.93 -30.85,0 -58.64,-5.83 -83.37,-17.5 -24.72,-11.67 -44.3,-29.17 -58.74,-52.51 -14.44,-23.34 -21.66,-52.61 -21.66,-87.82 0,-26.11 4.25,-48.65 12.76,-67.64 8.51,-18.99 19.88,-34.41 34.12,-46.28 14.24,-11.87 30.16,-20.67 47.76,-26.4 17.6,-5.74 35.7,-8.61 54.29,-8.61 28.09,0 52.61,5.44 73.58,16.32 20.96,10.88 37.38,25.71 49.25,44.5 11.87,18.79 17.8,40.45 17.8,64.98 0,13.45 -3.76,23.73 -11.28,30.85 -7.52,7.12 -18,11.67 -31.45,13.65 l -185.72,27.89 z m 439.68,-118.67 c -19.78,0 -36.89,6.33 -51.33,18.99 -14.44,12.66 -21.66,31.25 -21.66,55.78 0,24.52 6.92,42.72 20.77,54.59 13.85,11.87 31.05,17.8 51.62,17.8 11.87,0 22.45,-1.48 31.74,-4.45 9.3,-2.97 17.11,-6.04 23.44,-9.2 7.52,5.54 13.15,11.47 16.91,17.8 3.76,6.33 5.64,14.04 5.64,23.14 0,15.82 -7.81,28.48 -23.44,37.98 -15.62,9.49 -37.87,14.24 -66.75,14.24 -32.83,0 -61.41,-5.74 -85.74,-17.21 -24.33,-11.47 -43.12,-28.58 -56.37,-51.33 -13.25,-22.74 -19.88,-50.54 -19.88,-83.37 0,-34.81 7.32,-63.59 21.96,-86.33 14.63,-22.74 34.02,-39.76 58.15,-51.03 24.13,-11.28 50.43,-16.91 78.91,-16.91 28.09,0 49.94,5.14 65.57,15.43 15.63,10.28 23.44,23.54 23.44,39.76 0,7.52 -1.78,14.54 -5.34,21.06 -3.56,6.53 -7.71,12.17 -12.46,16.91 -6.72,-3.16 -14.83,-6.23 -24.33,-9.2 -9.5,-2.96 -19.78,-4.45 -30.85,-4.45 z m 412.39,96.13 h -100.87 v -52.81 c 0,-16.22 -4.05,-27.59 -12.16,-34.12 -8.11,-6.53 -18.1,-9.79 -29.96,-9.79 -11.87,0 -22.35,2.18 -31.45,6.53 -9.1,4.35 -17.01,9.1 -23.74,14.24 v -81.29 c 9.1,-4.74 19.98,-9 32.64,-12.76 12.66,-3.76 26.5,-5.64 41.54,-5.64 38.76,0 69.13,9.79 91.08,29.37 21.96,19.58 32.93,48.75 32.93,87.52 v 58.74 z m -283.63,-35.01 h 100.87 v 156.05 c -4.35,1.19 -10.58,2.37 -18.69,3.56 -8.11,1.19 -16.91,1.78 -26.4,1.78 -19.39,0 -33.53,-3.36 -42.43,-10.09 -8.9,-6.73 -13.35,-19.19 -13.35,-37.38 v -113.93 z m 182.75,0 h 100.87 v 156.05 c -4.35,1.19 -10.58,2.37 -18.69,3.56 -8.11,1.19 -16.91,1.78 -26.4,1.78 -19.39,0 -33.53,-3.36 -42.43,-10.09 -8.9,-6.73 -13.35,-19.19 -13.35,-37.38 v -113.93 z m -81.88,52.81 H 3460.2 v -283.04 c 4.35,-1.19 10.58,-2.37 18.69,-3.56 8.11,-1.19 16.91,-1.78 26.41,-1.78 19.78,0 34.02,3.26 42.72,9.79 8.7,6.53 13.06,19.09 13.06,37.68 v 240.91 z m 653.89,-203.52 c 0,9.89 -2.57,18.69 -7.71,26.41 -5.14,7.71 -11.07,13.74 -17.8,18.1 -9.89,-6.72 -20.77,-12.46 -32.64,-17.21 -11.87,-4.75 -25.51,-7.12 -40.94,-7.12 -20.17,0 -37.28,4.26 -51.33,12.76 -14.04,8.5 -24.72,20.77 -32.04,36.79 -7.32,16.02 -10.98,35.31 -10.98,57.85 0,34.81 8.8,61.31 26.4,79.51 17.6,18.2 42.03,27.3 73.28,27.3 16.22,0 29.97,-2.17 41.24,-6.53 11.28,-4.35 22.06,-9.3 32.34,-14.83 6.72,5.15 11.96,11.67 15.72,19.58 3.76,7.91 5.64,17.01 5.64,27.3 0,9.1 -2.37,17.41 -7.12,24.92 -4.75,7.52 -12.85,13.85 -24.33,18.99 -7.12,3.17 -17.21,6.33 -30.26,9.49 -13.05,3.17 -28.87,4.75 -47.47,4.75 -35.6,0 -67.94,-6.72 -97.01,-20.17 -29.07,-13.45 -52.22,-34.22 -69.43,-62.3 -17.21,-28.09 -25.81,-64.09 -25.81,-107.99 0,-41.14 8.31,-75.85 24.92,-104.14 16.61,-28.28 39.06,-49.84 67.35,-64.67 28.28,-14.83 59.44,-22.25 93.45,-22.25 24.13,0 44.7,2.77 61.71,8.31 17.01,5.54 30.06,13.05 39.16,22.55 9.1,9.49 13.65,20.37 13.65,32.63 z m 339.4,163.17 c 0,31.65 -6.43,58.94 -19.28,81.89 -12.85,22.94 -30.85,40.65 -54,53.11 -23.14,12.46 -50.54,18.69 -82.18,18.69 -31.25,0 -58.54,-6.13 -81.88,-18.39 -23.34,-12.26 -41.44,-29.87 -54.3,-52.81 -12.85,-22.94 -19.28,-50.44 -19.28,-82.48 0,-31.25 6.53,-58.35 19.58,-81.29 13.05,-22.94 31.25,-40.65 54.59,-53.11 23.34,-12.46 50.44,-18.69 81.29,-18.69 31.25,0 58.45,6.33 81.59,18.99 23.14,12.66 41.24,30.46 54.3,53.4 13.05,22.94 19.58,49.84 19.58,80.7 z m -155.46,-74.17 c -16.22,0 -28.98,6.43 -38.27,19.28 -9.3,12.86 -13.94,31.15 -13.94,54.89 0,24.53 4.55,43.12 13.65,55.78 9.1,12.66 21.95,18.98 38.57,18.98 16.61,0 29.47,-6.43 38.57,-19.28 9.1,-12.85 13.65,-31.35 13.65,-55.48 0,-23.34 -4.65,-41.53 -13.94,-54.59 -9.3,-13.06 -22.05,-19.58 -38.27,-19.58 z m 488.33,32.64 v 54.59 h -100.87 v -51.62 c 0,-12.26 -3.66,-21.26 -10.98,-27 -7.32,-5.74 -16.91,-8.61 -28.78,-8.61 -7.91,0 -15.33,0.99 -22.25,2.97 -6.92,1.98 -13.55,4.55 -19.87,7.71 v 76.54 h -100.87 v -90.19 c 0,-10.68 2.28,-19.39 6.82,-26.11 4.55,-6.72 10.78,-12.85 18.69,-18.39 13.45,-9.49 30.46,-17.11 51.03,-22.84 20.57,-5.74 43.12,-8.61 67.65,-8.61 44.7,0 79.11,9.79 103.24,29.37 24.13,19.58 36.19,46.97 36.19,82.18 z m -283.63,29.07 h 100.87 v 156.05 c -4.35,1.19 -10.58,2.37 -18.69,3.56 -8.11,1.19 -16.91,1.78 -26.41,1.78 -19.38,0 -33.52,-3.36 -42.43,-10.09 -8.9,-6.73 -13.35,-19.19 -13.35,-37.38 v -113.93 z m 182.76,0 h 100.87 v 156.05 c -4.35,1.19 -10.58,2.37 -18.69,3.56 -8.11,1.19 -16.91,1.78 -26.41,1.78 -19.38,0 -33.52,-3.36 -42.43,-10.09 -8.9,-6.73 -13.35,-19.19 -13.35,-37.38 v -113.93 z m 406.45,70.61 c 0,30.07 -11.37,53.6 -34.12,70.61 -22.75,17.01 -55.87,25.52 -99.39,25.52 -33.62,0 -61.21,-4.85 -82.77,-14.54 -21.56,-9.69 -32.34,-24.82 -32.34,-45.39 0,-9.49 1.98,-17.6 5.93,-24.33 3.96,-6.72 8.7,-12.07 14.24,-16.02 11.47,6.33 24.63,11.97 39.46,16.91 14.83,4.94 31.94,7.42 51.33,7.42 25.32,0 37.98,-6.53 37.98,-19.58 0,-5.54 -2.37,-9.89 -7.12,-13.06 -4.74,-3.16 -12.66,-5.73 -23.73,-7.71 l -17.8,-3.56 c -34.02,-6.72 -59.53,-17.41 -76.54,-32.04 -17.01,-14.63 -25.51,-35.2 -25.51,-61.71 0,-29.67 12.06,-52.81 36.19,-69.42 24.13,-16.61 55.58,-24.92 94.35,-24.92 19.38,0 37.08,1.88 53.11,5.63 16.02,3.76 28.78,9.69 38.27,17.8 9.49,8.11 14.24,18.49 14.24,31.15 0,8.7 -1.68,16.42 -5.04,23.14 -3.36,6.72 -7.61,12.26 -12.76,16.61 -4.35,-2.77 -11.17,-5.54 -20.47,-8.31 -9.3,-2.77 -19.29,-5.14 -29.96,-7.12 -10.68,-1.98 -20.18,-2.97 -28.48,-2.97 -13.05,0 -23.14,1.48 -30.26,4.45 -7.12,2.97 -10.68,7.61 -10.68,13.94 0,4.35 1.98,7.91 5.93,10.68 3.96,2.77 11.47,5.34 22.55,7.71 l 18.39,4.15 c 37.98,8.7 64.98,20.67 81,35.9 16.02,15.23 24.03,34.91 24.03,59.04 z m 48.65,-28.48 v -39.16 h 100.87 v 39.16 c 0,15.82 4.05,27.3 12.16,34.42 8.11,7.12 19.48,10.68 34.12,10.68 9.1,0 16.61,-0.79 22.55,-2.37 5.93,-1.58 10.29,-3.17 13.06,-4.75 v -77.14 h 100.87 v 91.97 c 0,9.89 -2.07,18.49 -6.23,25.81 -4.15,7.32 -10.39,13.55 -18.69,18.69 -13.84,8.7 -30.36,15.33 -49.54,19.88 -19.19,4.55 -40.05,6.82 -62.6,6.82 -28.48,0 -53.8,-4.25 -75.95,-12.76 -22.15,-8.5 -39.46,-21.85 -51.92,-40.05 -12.46,-18.2 -18.69,-41.93 -18.69,-71.2 z m 283.63,-13.65 H 5424.22 V 5258.1 c 4.35,-1.19 10.58,-2.37 18.69,-3.56 8.11,-1.19 16.91,-1.78 26.4,-1.78 19.78,0 34.02,3.26 42.72,9.79 8.7,6.53 13.05,19.09 13.05,37.68 v 116.89 z m -182.75,0 H 5241.47 V 5258.1 c 4.35,-1.19 10.58,-2.37 18.69,-3.56 8.11,-1.19 16.91,-1.78 26.4,-1.78 19.78,0 34.02,3.26 42.72,9.79 8.7,6.53 13.06,19.09 13.06,37.68 z m 247.43,-28.48 h 100.87 v 156.05 c -4.35,1.19 -10.58,2.37 -18.69,3.56 -8.11,1.19 -16.91,1.78 -26.41,1.78 -19.39,0 -33.53,-3.36 -42.43,-10.09 -8.9,-6.73 -13.35,-19.19 -13.35,-37.38 v -113.93 z m 100.87,52.81 h -100.87 v -283.04 c 4.35,-1.19 10.58,-2.37 18.69,-3.56 8.11,-1.19 16.91,-1.78 26.41,-1.78 19.78,0 34.02,3.26 42.72,9.79 8.7,6.53 13.06,19.09 13.06,37.68 v 240.91 z m 65.87,-52.81 h 99.69 v 57.56 c 0,9.89 3.26,17.11 9.79,21.66 6.53,4.55 15.72,6.82 27.59,6.82 5.94,0 12.07,-0.5 18.4,-1.48 6.33,-0.99 11.87,-2.27 16.61,-3.85 3.56,3.95 6.63,8.7 9.2,14.24 2.57,5.54 3.85,12.06 3.85,19.58 0,14.64 -5.63,26.8 -16.91,36.49 -11.28,9.69 -31.15,14.54 -59.63,14.54 -34.81,0 -61.61,-7.91 -80.4,-23.74 -18.79,-15.82 -28.18,-41.54 -28.18,-77.14 v -64.67 z m 65.27,-48.06 v -77.14 h 112.15 c 2.37,3.96 4.65,9.3 6.82,16.02 2.18,6.72 3.26,14.04 3.26,21.96 0,13.84 -3.07,23.83 -9.2,29.96 -6.13,6.13 -14.34,9.2 -24.63,9.2 h -88.41 z m 34.42,62.3 h -99.69 v -213.02 c 4.35,-1.19 10.58,-2.47 18.69,-3.85 8.11,-1.39 16.71,-2.08 25.81,-2.08 19.38,0 33.43,3.36 42.13,10.09 8.7,6.72 13.06,19.19 13.06,37.38 z m 258.11,151.9 c -41.54,0 -74.86,-8.01 -99.98,-24.03 -25.12,-16.02 -37.68,-40.25 -37.68,-72.69 0,-27.3 8.21,-48.26 24.63,-62.9 16.41,-14.63 41.43,-23.73 75.06,-27.29 l 77.73,-8.31 v -4.15 c 0,-11.47 -5.04,-19.68 -15.13,-24.63 -10.09,-4.94 -24.62,-7.42 -43.61,-7.42 -14.64,0 -29.17,1.58 -43.61,4.75 -14.44,3.16 -27.39,7.12 -38.86,11.87 -5.15,-3.56 -9.5,-9 -13.06,-16.32 -3.56,-7.31 -5.34,-14.93 -5.34,-22.84 0,-18.99 10.09,-32.44 30.26,-40.35 11.47,-4.35 25.02,-7.52 40.65,-9.49 15.63,-1.98 30.36,-2.97 44.2,-2.97 43.12,0 77.63,8.8 103.54,26.41 25.91,17.6 38.86,45 38.86,82.18 v 132.91 c 0,10.28 -2.87,18.69 -8.6,25.22 -5.74,6.53 -12.56,12.17 -20.47,16.91 -12.66,7.52 -28.08,13.25 -46.28,17.2 -18.2,3.96 -38.96,5.93 -62.3,5.93 z m 0,-73.57 c 6.72,0 14.14,-0.69 22.25,-2.08 8.11,-1.38 14.14,-3.26 18.1,-5.63 v -47.47 l -42.72,3.56 c -11.08,0.79 -20.17,3.17 -27.3,7.12 -7.12,3.96 -10.68,9.89 -10.68,17.8 0,7.91 3.07,14.34 9.2,19.28 6.13,4.94 16.52,7.42 31.15,7.42 z m 482.99,-121.64 v 54.59 h -100.87 v -51.62 c 0,-12.26 -3.66,-21.26 -10.98,-27 -7.32,-5.74 -16.91,-8.61 -28.78,-8.61 -7.91,0 -15.33,0.99 -22.25,2.97 -6.92,1.98 -13.55,4.55 -19.87,7.71 v 76.54 h -100.87 v -90.19 c 0,-10.68 2.28,-19.39 6.82,-26.11 4.55,-6.72 10.78,-12.85 18.69,-18.39 13.45,-9.49 30.46,-17.11 51.03,-22.84 20.57,-5.74 43.12,-8.61 67.65,-8.61 44.7,0 79.11,9.79 103.24,29.37 24.13,19.58 36.19,46.97 36.19,82.18 z m -283.63,29.07 h 100.87 v 156.05 c -4.35,1.19 -10.58,2.37 -18.69,3.56 -8.11,1.19 -16.91,1.78 -26.41,1.78 -19.38,0 -33.52,-3.36 -42.43,-10.09 -8.9,-6.73 -13.35,-19.19 -13.35,-37.38 v -113.93 z m 182.76,0 h 100.87 v 156.05 c -4.35,1.19 -10.58,2.37 -18.69,3.56 -8.11,1.19 -16.91,1.78 -26.41,1.78 -19.38,0 -33.52,-3.36 -42.43,-10.09 -8.9,-6.73 -13.35,-19.19 -13.35,-37.38 v -113.93 z m 325.76,-61.12 c -19.78,0 -36.89,6.33 -51.33,18.99 -14.44,12.66 -21.66,31.25 -21.66,55.78 0,24.52 6.92,42.72 20.77,54.59 13.85,11.87 31.05,17.8 51.62,17.8 11.87,0 22.45,-1.48 31.74,-4.45 9.3,-2.97 17.11,-6.04 23.44,-9.2 7.52,5.54 13.15,11.47 16.91,17.8 3.76,6.33 5.64,14.04 5.64,23.14 0,15.82 -7.81,28.48 -23.44,37.98 -15.62,9.49 -37.87,14.24 -66.75,14.24 -32.83,0 -61.41,-5.74 -85.74,-17.21 -24.33,-11.47 -43.12,-28.58 -56.37,-51.33 -13.25,-22.74 -19.88,-50.54 -19.88,-83.37 0,-34.81 7.32,-63.59 21.96,-86.33 14.63,-22.74 34.02,-39.76 58.15,-51.03 24.13,-11.28 50.43,-16.91 78.91,-16.91 28.09,0 49.94,5.14 65.57,15.43 15.63,10.28 23.44,23.54 23.44,39.76 0,7.52 -1.78,14.54 -5.34,21.06 -3.56,6.53 -7.71,12.17 -12.46,16.91 -6.72,-3.16 -14.83,-6.23 -24.33,-9.2 -9.5,-2.96 -19.78,-4.45 -30.85,-4.45 z m 172.67,144.19 c -5.93,-13.45 -12.26,-28.97 -18.98,-46.58 -6.73,-17.6 -13.75,-38.76 -21.07,-63.49 -7.32,-24.72 -15.33,-54.69 -24.03,-89.89 5.54,-5.54 12.96,-10.39 22.25,-14.54 9.3,-4.15 19.48,-6.23 30.56,-6.23 13.84,0 25.31,2.87 34.41,8.6 9.1,5.74 15.82,16.52 20.18,32.34 7.91,27.69 15.82,55.08 23.73,82.18 7.91,27.1 15.63,54.09 23.14,80.99 h 2.37 c 6.33,-18.19 12.56,-38.17 18.69,-59.93 6.13,-21.76 11.87,-44.01 17.21,-66.75 5.34,-22.74 9.79,-44.8 13.35,-66.16 6.72,-3.56 13.65,-6.33 20.77,-8.31 7.12,-1.98 14.64,-2.96 22.55,-2.96 13.85,0 25.91,2.96 36.2,8.9 10.28,5.93 15.43,16.22 15.43,30.85 0,12.66 -1.58,27.3 -4.74,43.91 -3.17,16.61 -7.52,34.22 -13.06,52.81 -5.54,18.59 -11.87,37.28 -18.99,56.07 -7.12,18.79 -14.64,36.79 -22.55,54 -7.91,17.2 -15.82,32.73 -23.74,46.58 -22.15,38.37 -42.72,66.85 -61.71,85.44 -18.99,18.59 -38.17,27.89 -57.56,27.89 -15.82,0 -29.07,-4.94 -39.76,-14.83 -10.68,-9.89 -17.01,-22.74 -18.99,-38.57 8.31,-7.12 16.71,-14.83 25.22,-23.14 8.51,-8.31 16.72,-17.11 24.63,-26.41 7.91,-9.3 15.03,-18.49 21.36,-27.59 -6.72,-1.98 -13.94,-6.63 -21.66,-13.94 -7.72,-7.32 -16.12,-21.06 -25.22,-41.24 z"
       id="path235"
       style="fill:url(#id6)" /></g></g>
 </g>
</svg>
